<?xml version="1.0" encoding="UTF-8"?>
<svg width="1200pt" height="1200pt" version="1.1" viewBox="0 0 1200 1200" xmlns="http://www.w3.org/2000/svg">
 <g>
  <path d="m452.68 1004.8 505.2-630.83-170.51-119.38-419.94 690.54z"/>
  <path d="m65.699 1151.5c29.449-51.277 68.039-89.809 129.18-95.52 34.176-3.2148 77.062 6.9609 108.01-0.50391 18.371-4.4648 31.078-15.168 41.688-30.59l14.746-21.434 42.875 29.496-14.734 21.445c-19.285 28.031-44.23 47.027-78.145 53.293-37.176 6.8398-72.539-3.7695-108.74-0.21484-43.5 4.2617-69.191 34.117-89.762 69.938l-12.961 22.559-45.109-25.934z"/>
  <path d="m1114.3 286.59c57.684-82.379 37.656-195.97-44.734-253.64-82.367-57.684-195.96-37.645-253.66 44.734-22.176 31.68-32.844 68.004-32.914 103.98l244.86 171.43c33.789-12.363 64.27-34.824 86.445-66.504z"/>
 </g>
</svg>
